<svg width="48" height="48" viewBox="0 0 48 48" fill="none" xmlns="http://www.w3.org/2000/svg">
<path d="M24 48C20.75 48 17.6406 47.3672 14.6719 46.1016C11.7031 44.8359 9.14844 43.1328 7.00781 40.9922C4.86719 38.8516 3.16406 36.2969 1.89844 33.3281C0.632812 30.3594 0 27.25 0 24C0 20.75 0.632812 17.6406 1.89844 14.6719C3.16406 11.7031 4.86719 9.14844 7.00781 7.00781C9.14844 4.86719 11.7031 3.16406 14.6719 1.89844C17.6406 0.632812 20.75 0 24 0C27.25 0 30.3594 0.632812 33.3281 1.89844C36.2969 3.16406 38.8516 4.86719 40.9922 7.00781C43.1328 9.14844 44.8359 11.7031 46.1016 14.6719C47.3672 17.6406 48 20.75 48 24C48 27.25 47.3672 30.3594 46.1016 33.3281C44.8359 36.2969 43.1328 38.8516 40.9922 40.9922C38.8516 43.1328 36.2969 44.8359 33.3281 46.1016C30.3594 47.3672 27.25 48 24 48ZM36 15C36 14.1875 35.7109 13.4844 35.1328 12.8906C34.5547 12.2969 33.8438 12 33 12H15C14.1875 12 13.4844 12.2969 12.8906 12.8906C12.2969 13.4844 12 14.1875 12 15V18H17.3438C19.1562 16 21.375 15 24 15C26.625 15 28.8438 16 30.6562 18H36V15ZM18 24C18 25.6562 18.5859 27.0703 19.7578 28.2422C20.9297 29.4141 22.3438 30 24 30C25.6562 30 27.0703 29.4141 28.2422 28.2422C29.4141 27.0703 30 25.6562 30 24C30 22.3438 29.4141 20.9297 28.2422 19.7578C27.0703 18.5859 25.6562 18 24 18C22.3438 18 20.9297 18.5859 19.7578 19.7578C18.5859 20.9297 18 22.3438 18 24ZM36 21H32.4375C32.8125 22.0312 33 23.0312 33 24C33 26.5 32.125 28.625 30.375 30.375C28.625 32.125 26.5 33 24 33C21.5 33 19.375 32.125 17.625 30.375C15.875 28.625 15 26.5 15 24C15 23.0312 15.1875 22.0312 15.5625 21H12V33C12 33.8438 12.2891 34.5547 12.8672 35.1328C13.4453 35.7109 14.1562 36 15 36H33C33.8438 36 34.5547 35.7109 35.1328 35.1328C35.7109 34.5547 36 33.8438 36 33V21Z" fill="#EFEFFA"/>
</svg>
