<svg xmlns="http://www.w3.org/2000/svg" viewBox="0 0 24 24"><defs><style>.cls-1{fill:#1d1d1b;}</style></defs><g id="Слой_2" data-name="Слой 2"><g id="Слой_1-2" data-name="Слой 1"><path class="cls-1" d="M24,3A2.92,2.92,0,0,0,23.13.89,2.88,2.88,0,0,0,21,0H3A2.9,2.9,0,0,0,.89.89,2.9,2.9,0,0,0,0,3V6H5.34A8.67,8.67,0,0,1,12,3a8.67,8.67,0,0,1,6.66,3H24Z"/><path class="cls-1" d="M6,12a5.78,5.78,0,0,0,1.76,4.24A5.78,5.78,0,0,0,12,18a5.78,5.78,0,0,0,4.24-1.76A5.78,5.78,0,0,0,18,12a5.78,5.78,0,0,0-1.76-4.24A5.78,5.78,0,0,0,12,6,5.78,5.78,0,0,0,7.76,7.76,5.78,5.78,0,0,0,6,12Z"/><path class="cls-1" d="M24,9H20.44A8.86,8.86,0,0,1,21,12a8.95,8.95,0,0,1-9,9,8.74,8.74,0,0,1-6.38-2.62A8.74,8.74,0,0,1,3,12a8.86,8.86,0,0,1,.56-3H0V21a2.9,2.9,0,0,0,.87,2.13A2.9,2.9,0,0,0,3,24H21a3,3,0,0,0,3-3Z"/></g></g></svg>